<svg width="532" height="282" viewBox="0 0 532 282" fill="none" xmlns="http://www.w3.org/2000/svg">
<path d="M170.507 120.018C181.27 142.012 191.956 163.843 202.744 185.898C202.031 185.898 180.871 185.898 171.585 185.932L143.991 125.615C136.946 125.658 126.863 125.675 119.818 125.615L119.928 185.932C111.737 185.855 100.05 185.872 91.8589 185.923C91.8589 185.923 91.8928 86.3148 91.8589 37.9805C91.8589 37.9805 133.076 37.8863 152.955 38.0834C162.885 38.1777 172.417 40.2948 180.778 46.132C189.945 52.5348 194.706 61.6805 196.446 72.5577C197.737 80.5891 197.703 88.612 195.156 96.4291C191.43 107.863 183.774 115.406 172.536 119.298C171.899 119.521 171.263 119.743 170.507 120.009V120.018ZM119.843 81.952C119.843 88.372 119.877 96.3863 119.818 102.806H121.371C128.204 102.738 135.037 102.832 141.869 102.755C146.351 102.703 150.816 102.343 155.187 101.212C162.469 99.3348 167.477 95.1863 168.784 87.3605C169.345 84.0177 169.404 80.6577 168.869 77.3063C167.876 71.092 164.829 66.352 159.066 63.6091C155.764 62.0405 152.267 61.1834 148.66 61.132C139.484 61.0034 119.835 60.9948 119.835 60.9948C119.869 67.5177 119.852 75.4205 119.852 81.9434L119.843 81.952Z" fill="#68727C"/>
<path d="M287.572 120.018C298.335 142.012 309.021 163.843 319.809 185.898C319.096 185.898 297.936 185.898 288.65 185.932L261.056 125.615C254.011 125.658 243.927 125.675 236.882 125.615L236.993 185.932C228.802 185.855 217.114 185.872 208.923 185.923C208.923 185.923 208.957 86.3148 208.923 37.9805C208.923 37.9805 250.14 37.8863 270.019 38.0834C279.95 38.1777 289.482 40.2948 297.842 46.132C307.009 52.5348 311.771 61.6805 313.511 72.5577C314.801 80.5891 314.767 88.612 312.221 96.4291C308.495 107.863 300.838 115.406 289.601 119.298C288.964 119.521 288.327 119.743 287.572 120.009V120.018ZM236.908 81.952C236.908 88.372 236.942 96.3863 236.882 102.806H238.436C245.268 102.738 252.101 102.832 258.934 102.755C263.415 102.703 267.88 102.343 272.251 101.212C279.534 99.3348 284.542 95.1863 285.849 87.3605C286.409 84.0177 286.468 80.6577 285.934 77.3063C284.941 71.092 281.894 66.352 276.13 63.6091C272.828 62.0405 269.331 61.1834 265.724 61.132C256.549 61.0034 236.899 60.9948 236.899 60.9948C236.933 67.5177 236.916 75.4205 236.916 81.9434L236.908 81.952Z" fill="#68727C"/>
<path d="M348.65 112.62C348.532 122.991 349.219 132.729 352.13 142.166C354.066 148.431 356.985 154.149 362.112 158.426C367.358 162.797 373.528 164.254 380.183 164.177C386.413 164.109 392.159 162.66 396.963 158.426C400.953 154.903 403.737 150.471 406.249 145.834C406.886 144.677 408.218 142.311 408.218 142.311C408.218 142.311 410.654 142.989 411.91 143.323C418.854 145.183 427.112 147.394 434.055 149.254L433.741 150.257C428.98 163.363 421.417 174.189 409.033 181.054C401.029 185.486 392.363 187.457 383.289 187.894C373.596 188.366 364.158 187.217 355.195 183.266C342.955 177.866 334.561 168.557 328.95 156.531C324.63 147.257 322.414 137.409 321.345 127.26C320.734 121.449 320.42 115.62 320.547 109.783C320.844 95.4515 322.652 81.3772 328.636 68.1772C335.409 53.2458 346.172 42.7972 362.104 38.2543C370.294 35.9143 378.647 35.6572 387.058 36.36C394.612 36.9943 401.835 38.8372 408.473 42.6515C417.971 48.1115 423.98 56.4943 427.868 66.5829C428.776 68.9229 429.455 71.3572 430.27 73.7315L430.567 74.8029C422.766 76.6543 412.921 79.1743 405.146 81.1115L404.738 79.8772C403.355 75.9858 401.419 72.4286 398.873 69.1715C389.282 56.8972 367.23 55.3458 357.13 72.0515C353.123 78.6772 351.078 85.9543 349.907 93.54C348.897 100.054 348.515 106.611 348.659 112.646L348.65 112.62Z" fill="#68727C"/>
<path d="M258.221 224.691C258.968 222.043 259.664 219.523 260.385 217.02C261.37 213.6 262.431 210.197 263.356 206.751C263.627 205.748 264.052 205.431 265.045 205.371C271.852 204.926 278.651 204.317 285.458 203.94C297.783 203.246 310.124 202.791 322.474 202.526C337.548 202.2 352.614 202.286 367.689 202.44C375.192 202.517 382.695 202.783 390.19 203.057C402.158 203.503 414.134 203.991 426.085 204.763C435.133 205.346 444.181 205.817 453.221 206.468C463.406 207.197 473.575 208.063 483.752 208.877C487.801 209.203 491.849 209.528 496.008 209.871C488.191 216.034 482.869 224.408 475.867 231.171C473.303 233.64 470.791 236.168 468.304 238.714C465.486 241.586 462.396 242.1 458.517 241.508C447.5 239.837 436.432 238.508 425.381 237.111C416.078 235.937 406.775 234.806 397.456 233.751C389.952 232.903 382.432 232.157 374.92 231.42C366.314 230.58 357.707 229.757 349.092 229.011C341.877 228.394 334.654 227.811 327.431 227.374C315.785 226.671 304.132 226.02 292.478 225.506C281.698 225.026 270.919 224.777 260.13 224.7C259.562 224.7 258.993 224.7 258.238 224.7L258.221 224.691Z" fill="#FF6C19"/>
<path d="M36 233.442C43.0789 232.362 50.4379 231.273 57.7884 230.125C67.5494 228.599 77.3105 227.091 87.0545 225.471C96.4506 223.911 105.872 222.505 115.302 221.202C123.145 220.122 131.013 219.282 138.856 218.236C144.738 217.448 150.586 216.436 156.468 215.605C164.566 214.456 172.672 213.385 180.803 212.545C187.228 211.876 193.637 211.071 200.062 210.453C207.786 209.716 215.527 209.082 223.259 208.456C231.255 207.813 239.259 207.222 247.263 206.639C250.947 206.373 254.639 206.168 258.56 205.928C257.847 208.371 257.168 210.693 256.498 213.025C255.479 216.548 254.452 220.071 253.485 223.611C253.264 224.416 252.941 224.725 252.11 224.716C248.986 224.665 245.863 224.673 242.739 224.656C231.942 224.622 221.137 224.545 210.341 224.553C196.098 224.562 181.864 224.853 167.638 225.351C155.823 225.762 144.017 226.542 132.201 227.116C126.523 227.391 120.845 227.528 115.175 227.828C108.987 228.153 102.8 228.573 96.6119 228.968C87.6657 229.533 78.7194 230.031 69.7817 230.691C59.8085 231.428 49.8437 232.311 39.879 233.125C38.4785 233.236 37.078 233.348 36 233.433L36 233.442Z" fill="#21A0FB"/>
</svg>
